# xmcd
# 
# Track frame offsets:
#     150
#     12527
#     26740
#     45530
#     64530
#     76480
#     93965
#     114655
#     120670
#     137190
#     157160
#     175207
# 
# Disc length: 2572
# 
# Revision: 0
# Processed by: cddbd v1.5.2PL0 Copyright (c) Steve Scherf et al.
# Submitted via: fre:ac v1.0.31
# 
DISCID=9f0a0a0c
DTITLE=Pino Daniele - Le più belle canzoni
DYEAR=2005
DGENRE=Blues
TTITLE0=Notte Che Se Ne Va
TTITLE1=Ma Che Ho
TTITLE2=Annarè
TTITLE3=Tutta 'nata Storia
TTITLE4=Lazzari Felici
TTITLE5=Stella Nera
TTITLE6=Ferry-Boat
TTITLE7=Quaccosa
TTITLE8=Gesù Gesù
TTITLE9=Me So' mbriacato 'e Te Forever
TTITLE10=Anna Verrà
TTITLE11=Ammore Scumbinato
EXTD=
EXTT0=
EXTT1=
EXTT2=
EXTT3=
EXTT4=
EXTT5=
EXTT6=
EXTT7=
EXTT8=
EXTT9=
EXTT10=
EXTT11=
PLAYORDER=
